<?xml version="1.0" encoding="utf-8"?>
<!-- Generator: Adobe Illustrator 23.0.3, SVG Export Plug-In . SVG Version: 6.00 Build 0)  -->
<svg version="1.1" id="Layer_1" xmlns="http://www.w3.org/2000/svg" xmlns:xlink="http://www.w3.org/1999/xlink" x="0px" y="0px"
	 viewBox="0 0 42.42 23" style="enable-background:new 0 0 42.42 23;" xml:space="preserve">
<style type="text/css">
	.st0{fill:#302F34;}
</style>
<path class="st0" d="M15.28,14.17c0.13-0.07,0.28,0.05,0.39-0.03c-0.02,0.2-0.45,0.1-0.5,0.38c-0.27,0.02-0.62-0.05-0.6-0.35
	c0.15-0.03,0.4-0.05,0.57-0.13C15.15,14.1,15.3,14.05,15.28,14.17 M14.85,13.61c-0.03-0.01-0.07,0-0.26,0.09
	c-0.14,0.07-0.29,0.15-0.33,0.31c-0.04,0.17-0.1,0.29-0.25,0.38c-0.14,0.08-0.43,0.18-0.43,0.3c0,0.13,0.02,0.34,0.02,0.34l0,0.03
	c0.15-0.2,0.35-0.36,0.55-0.51c0.15,0.22,0.6,0.13,0.8,0.22c0.07-0.02-0.03-0.05,0.03-0.09c0.13,0.05,0.33,0.03,0.48,0
	c-0.08,0.1-0.42,0.28-0.37,0.15c-0.19,0.46-0.89,0.61-0.72,1.02c-0.06-0.16,0.35-0.31,0.72-0.75c0.03-0.04,0.03,0.07,0.03,0.1
	c0.3-0.1,0.52-0.4,0.87-0.37c0.02,0.08-0.12,0.09-0.13,0.14c0.1-0.03,0.49-0.13,0.68-0.14c0.1,0,0,0.05,0,0.08
	c0.08,0.02,0.1-0.05,0.2-0.03c-0.02-0.03-0.05-0.03-0.1-0.05c0.17-0.07,0.7,0.05,0.62-0.12c0.33,0.07,0.35-0.2,0.62-0.18
	c-0.17-0.07-0.25-0.22-0.38-0.32c0.03-0.17,0.08-0.25,0.07-0.5c-0.03-0.12-0.18-0.1-0.1-0.27c-0.06-0.02-0.05,0.07-0.12,0.05v-0.15
	c-0.12,0-0.17,0.08-0.28,0.08c-0.03-0.1,0.03-0.1,0.02-0.18c-0.2-0.02-0.44,0.03-0.47-0.22c-0.23,0.08-0.43-0.02-0.67,0
	C15.5,13.12,15.15,13.73,14.85,13.61 M13.53,15.01c0.01-0.18-0.08-0.39,0.07-0.45c0.28-0.17,0.5-0.17,0.6-0.55
	c0.07-0.25,0.33-0.3,0.52-0.4c-0.01,0,0.01,0,0,0c-3.02-0.84-6.9-1.62-9.3-3.27C4.75,9.88,4.23,9.17,4.27,7.99
	c0.15-0.03,0.17,0.08,0.28,0.1C4.5,7.76,4.44,7.34,4.5,6.99c0.45,0.17,0.59,0.65,0.79,1.05c0.05-0.07,0.03-0.2,0.08-0.25
	c0.54,0.15,0.84,0.58,1.12,1.02c0.79-0.13,1.2,0.53,1.57,1c0.29-0.25,1.17-0.22,1.24,0.22c0.02,0.1-0.11,0.07-0.21,0.07
	c0.33,0.12,1.03-0.05,1.45,0.1c0.02,0.15,0.13,0.2,0.2,0.28c0.53-0.02,1.08,0.17,1.52,0.33c0.03,0.03,0.02,0.1,0.05,0.14
	c0.69,0.1,1.22,0.35,1.91,0.43c1.1,0.55,2.6,0.69,3.81,1.14c0.08,0.1,0.17,0.13,0.38,0.2c1.74-0.03,2.37-1.17,3.71-1.59
	c0.67-0.25,1.3-0.6,1.94-0.95c0.77-0.43,1.6-0.72,2.42-1.05c0.8-0.33,1.62-0.69,2.35-1.12c0.8-0.44,1.35-0.94,1.85-1.62
	c0.49-0.65,0.84-1.37,1.34-2.1c-0.15,1.42-1.03,2.34-1.95,3.09c0.54-0.17,0.95-0.55,1.34-0.9c0.8-0.7,1.52-1.5,2.09-2.44
	c0.28-0.47,0.49-1,0.85-1.42c-0.03,1.12-0.58,1.87-1.1,2.57c-0.55,0.74-1.27,1.17-1.83,1.8c0.5-0.17,0.93-0.48,1.37-0.75
	c1.32-0.8,2.49-1.84,3.63-2.86c-0.28,0.65-0.84,1.27-1.3,1.67c-0.75,0.7-1.72,1.17-2.52,1.8c1.69-0.57,3.26-1.47,4.91-2.16
	c-1.15,0.97-2.77,1.5-4.11,2.29c1.38-0.27,2.71-0.82,4.26-1c-0.25,0.12-0.57,0.22-0.9,0.3c-0.22,0.07-0.47,0.13-0.68,0.22
	c-0.18,0.05-0.38,0.05-0.43,0.25c0.53-0.12,1.05-0.22,1.64-0.28c-0.32,0.18-0.72,0.25-1.1,0.37c-0.37,0.1-0.77,0.22-1.05,0.4
	c0.59,0.02,1.14-0.22,1.77-0.25c-0.22,0.12-0.48,0.22-0.75,0.3c-0.25,0.1-0.55,0.12-0.73,0.28c0.03,0.13,0.33-0.02,0.39,0.1
	c-0.29,0.28-0.75,0.37-1.1,0.57c0,0.13,0.2,0.08,0.2,0.23c-0.22,0.28-0.74,0.28-1.04,0.48c0.07,0.1,0.25,0.07,0.28,0.18
	c-0.25,0.38-1.05,0.22-1.3,0.6c-0.2,0.01-0.3,0.13-0.45,0.2c0,0.08,0.08,0.07,0.07,0.15c-0.18,0.1-0.42,0.17-0.5,0.37
	c-0.29,0-0.49,0.08-0.63,0.23c-0.3-0.03-0.38,0.13-0.62,0.15c-0.1,0.02,0.12,0.08,0.02,0.1c-0.2,0.05-0.43,0.1-0.48,0.32
	c-0.15,0.09-0.33,0.07-0.47,0.12c-0.05,0.03-0.1,0.1-0.15,0.13c-0.15,0.07-0.33,0.03-0.44,0.1c-0.12,0.08-0.12,0.23-0.23,0.33
	c-0.15,0.13-0.28,0.08-0.47,0.18c-0.12,0.28-0.32,0.43-0.64,0.47c0,0.32-0.35,0.48-0.6,0.28c-0.02-0.08-0.05-0.15-0.05-0.27
	c-0.22,0.12-0.02,0.33,0.1,0.39c-0.33,0.08-0.27,0.55-0.73,0.5c-0.2,0.18-0.4,0.49-0.75,0.43c-0.13,0.28-0.4,0.4-0.75,0.42
	c0.15,0.07,0.33,0.22,0.22,0.43c-0.13,0.07-0.3,0.1-0.47,0.12c-0.05,0.08-0.02,0.22-0.08,0.27c-0.07,0.08-0.24,0.08-0.35,0.13
	c0.03,0.13,0.17,0.2,0.2,0.35c0.73,0.48,1.85,0.58,2.77,0.87c-0.25,0.02-0.64-0.07-0.95-0.1c0.32,0.15,0.68,0.25,1.12,0.28
	c-0.02,0.05-0.08,0.02-0.03,0.08c0.42,0.12,0.87,0.23,1.29,0.35c-0.07,0.13-0.24-0.02-0.38,0c-0.07,0.03,0.08,0.08,0,0.13
	c-0.85-0.12-1.65-0.28-2.29-0.62c-0.2,0-0.6,0.17-0.85,0.03c-0.05,0.07-0.13,0.2-0.23,0.07c0.02,0.25,0.07,0.63-0.02,0.84
	c-0.22,0.11-0.47-0.05-0.65-0.1c-0.67,0.24-1.45-0.17-1.9-0.52c-0.87,0.02-2,0.1-2.99,0.05c-1.35-0.07-2.39-0.45-3.16-1.19h-0.23
	c-0.12,0.05,0.15,0.15,0,0.15c-0.12-0.05-0.2-0.12-0.32-0.18c-0.43,0.05-0.85-0.1-1.15,0.05c-0.17,0.1-0.2,0.32-0.35,0.33
	c0.03-0.2,0.13-0.2,0.1-0.4c-0.03-0.15,0.1-0.57,0.02-0.5c-0.03-0.33-0.28-0.08-0.43-0.35c-0.18,0.02-0.15,0.23-0.2,0.38
	c-0.08-0.05-0.11-0.14-0.13-0.26L13.53,15.01z"/>
</svg>
