<svg xmlns="http://www.w3.org/2000/svg" width="143" height="106"><path fill="#a4a4a4" fill-rule="evenodd" d="M0 93.68c6.13-3.13 11.835-6.3 17.117-9.485s9.814-6.356 13.596-9.486c4.434-3.78 8.085-7.822 10.955-12.125S47.015 52.74 49.1 45.96H40.7c-8.216 0-14.117-2.02-17.703-6.062s-5.38-8.54-5.38-13.495c0-6.258 2.413-12.223 7.238-17.895S36.255 0 44.602 0c8.868 0 15.42 2.477 19.66 7.432S70.62 18.905 70.62 26.99c0 10.56-2.283 20.144-6.847 28.75S53.47 72.036 46.558 78.816c-6.78 6.52-13.856 11.93-21.225 16.232S11.477 103 5.87 106L0 93.68zm72.38 0c6.13-3.13 11.835-6.3 17.117-9.485s9.814-6.356 13.596-9.486c4.434-3.78 8.086-7.822 10.955-12.125s5.347-9.844 7.434-16.624h-8.412c-8.216 0-14.118-2.02-17.704-6.062s-5.38-8.54-5.38-13.495c0-6.258 2.413-12.223 7.238-17.895S108.636 0 116.982 0c8.868 0 15.422 2.477 19.66 7.432S143 18.905 143 26.99c0 10.56-2.282 20.144-6.847 28.75a93.49 93.49 0 0 1-17.215 23.078c-6.78 6.52-13.856 11.93-21.225 16.232S83.857 103 78.25 106l-5.87-12.32z" opacity=".1"/></svg>