<svg xmlns="http://www.w3.org/2000/svg" width="44" height="44" fill-rule="evenodd"><circle fill="#3f3f3f" cx="22" cy="22" r="22"/><path d="M24.024 13.626c.505 0 .988.17 1.386.485h.025l.216.214 1.734 1.773h2.942c1.268 0 2.3 1.036 2.3 2.31v9.796c0 1.287-1.032 2.334-2.3 2.334H13.633c-1.268 0-2.3-1.047-2.3-2.334v-9.796c0-1.274 1.032-2.31 2.3-2.31h3.014l1.668-1.715c.433-.48 1.048-.757 1.69-.757h4.02zm0 1.4h-4.02a.88.88 0 0 0-.584.219l-.1.106-2.094 2.147h-3.592c-.514 0-.917.4-.917.91v9.796c0 .515.41.933.917.933h16.695c.506 0 .917-.42.917-.933v-9.796c0-.5-.403-.91-.917-.91h-3.52l-2.148-2.193c-.132-.133-.34-.28-.636-.28zM22 18.84a3.79 3.79 0 0 1 3.785 3.785A3.79 3.79 0 0 1 22 26.409a3.79 3.79 0 0 1-3.785-3.785A3.79 3.79 0 0 1 22 18.839zm0 1.295a2.49 2.49 0 0 0-2.487 2.49c0 1.373 1.116 2.5 2.487 2.5s2.487-1.117 2.487-2.5A2.49 2.49 0 0 0 22 20.134zm7.57-1.983c.57 0 1.032.463 1.032 1.032s-.463 1.032-1.032 1.032-1.032-.463-1.032-1.032S29 18.15 29.57 18.15zm0 .762c-.147 0-.266.12-.266.27s.12.27.266.27.266-.12.266-.27-.12-.27-.266-.27z" fill="#ededed"/></svg>