<svg xmlns="http://www.w3.org/2000/svg" width="32" height="32"><path d="M25.04 0a.8.8 0 0 1 .8.8h0v1.94H28c2.206 0 4 1.82 4 4.025h0v20.8a3.99 3.99 0 0 1-4 3.975h0H3.995A3.99 3.99 0 0 1 0 27.56h0V6.765C0 4.56 1.794 2.74 4 2.74h2.16V.8a.8.8 0 0 1 1.6 0h0v1.94h16.48V.8a.8.8 0 0 1 .8-.8zM6.16 4.34H4c-1.323 0-2.4 1.102-2.4 2.425h0V27.57c.008 1.318 1.082 2.38 2.4 2.37h24.01c1.318.003 2.388-1.063 2.39-2.38h0V6.765c0-1.323-1.077-2.425-2.4-2.425h0-2.16v2.808a.8.8 0 1 1-1.6 0h0V4.34H7.76v2.808a.8.8 0 0 1-1.6 0h0V4.34zm18.438 19.348a.8.8 0 0 1 0 1.6H7.402a.8.8 0 0 1 0-1.6h17.196zm0-5.732a.8.8 0 0 1 0 1.6H7.402a.8.8 0 0 1 0-1.6h17.196zm-7.88-5.732a.8.8 0 0 1 0 1.6H7.402a.8.8 0 0 1 0-1.6h9.314z" fill="#1495ba" fill-rule="evenodd"/></svg>