<svg xmlns="http://www.w3.org/2000/svg" width="32" height="32"><path fill="#1495ba" fill-rule="evenodd" d="M16 20.303l-8.836-4.2 2.728-1.436 5.9 2.875c.063.03.133.053.207.053s.144-.02.207-.053l.002.002 5.9-2.877 2.727 1.436-8.836 4.2zm8.836-.227L16 24.276l-8.836-4.2 2.728-1.437 5.9 2.876c.063.03.133.052.207.052s.144-.02.207-.052l.002.002 5.9-2.878 2.726 1.437zM7.164 12.13L16 7.93l8.836 4.2L16 16.33l-8.836-4.2zm19.503 3.972a.497.497 0 0 0-.279-.446l.002-.002-3.154-1.54 3.152-1.54a.496.496 0 0 0 0-.89l.002-.003L16.207 6.72A.477.477 0 0 0 16 6.667a.448.448 0 0 0-.207.052l-.002-.002-10.18 4.967a.496.496 0 0 0 0 .89l-.002.003 3.154 1.54-3.154 1.54.002.002a.497.497 0 0 0 0 .893l-.002.002 3.154 1.54L5.6 19.628l.002.002a.497.497 0 0 0 0 .892l-.002.003 10.183 4.963c.063.03.133.052.207.052s.144-.02.207-.052l.002.002 10.18-4.968a.497.497 0 0 0 0-.89l.002-.002-3.154-1.54 3.152-1.54a.497.497 0 0 0 .279-.447z"/></svg>