<svg xmlns="http://www.w3.org/2000/svg" width="32" height="32"><path fill="#1495ba" fill-rule="evenodd" d="M6.957 14.18l8.162-7.568a1.376 1.376 0 011.874.007l8.029 7.561H6.957zm16.305 10.246c0 .757-.614 1.37-1.372 1.372h-2.534V21.99a2.29 2.29 0 00-2.287-2.287h-2.173a2.29 2.29 0 00-2.287 2.287v3.807H9.97a1.374 1.374 0 01-1.372-1.372v-9.331h14.664v9.33zm-4.82 1.372h-4.918V21.99c0-.757.614-1.371 1.372-1.372h2.173c.758.001 1.372.615 1.373 1.372v3.807zM17.62 5.953a2.294 2.294 0 00-3.123-.012L5.48 14.3a.458.458 0 00.31.794h1.894v9.33a2.29 2.29 0 002.286 2.287h11.92a2.29 2.29 0 002.287-2.286v-9.331h1.998a.458.458 0 00.313-.79L17.62 5.952z"/></svg>