<svg xmlns="http://www.w3.org/2000/svg" width="48" height="48"><path fill="#ededed" fill-rule="evenodd" d="M17.142 19.126a.933.933 0 0 0-1.018.203l-3.636 3.635-2.232-2.23 6.864-6.864h1.492a5.396 5.396 0 0 0 5.386 5.57 5.396 5.396 0 0 0 5.39-5.39l-.004-.18h1.294l6.935 6.654-2.442 2.44-3.636-3.635a.934.934 0 0 0-1.595.66v13.07H17.72V20a.934.934 0 0 0-.578-.864m22.354.614L31.7 12.26a.93.93 0 0 0-.646-.26h-2.748a.932.932 0 0 0-.906 1.168c.078.3.118.597.118.88 0 1.942-1.58 3.52-3.522 3.52s-3.52-1.58-3.52-3.52c0-.285.04-.582.117-.883A.927.927 0 0 0 19.689 12h-2.956a.93.93 0 0 0-.661.274l-7.798 7.798a.93.93 0 0 0 0 1.322l3.553 3.552a.955.955 0 0 0 1.321 0l2.702-2.7v11.746c0 .516.42.935.934.935h14.1c.515 0 .935-.42.935-.935V22.245l2.702 2.7a.945.945 0 0 0 1.32 0l3.554-3.552a.93.93 0 0 0 .21-.32l.124-.318a.932.932 0 0 0-.223-1.016"/></svg>