<svg xmlns="http://www.w3.org/2000/svg" xmlns:xlink="http://www.w3.org/1999/xlink" width="46" height="46"><defs><path id="A" d="M6.417 6.417h19.166v19.166H6.417z"/></defs><g fill-rule="evenodd" transform="translate(7 7)"><path fill="#ededed" d="M16 2.645C8.636 2.645 2.645 8.636 2.645 16S8.636 29.355 16 29.355 29.355 23.364 29.355 16 23.364 2.645 16 2.645m0 28.688C7.545 31.333.667 24.455.667 16S7.545.667 16 .667 31.333 7.545 31.333 16 24.455 31.333 16 31.333"/><mask id="B" fill="#fff"><use xlink:href="#A"/></mask><path fill="#ededed" d="M13.934 17.315H9.232c-.725 0-1.315-.6-1.315-1.315s.6-1.315 1.315-1.315h4.702a.75.75 0 0 0 .75-.75V9.23a1.317 1.317 0 0 1 2.63 0l.001 4.702a.75.75 0 0 0 .75.75h4.702a1.317 1.317 0 0 1 0 2.63l-4.702.001a.751.751 0 0 0-.75.75v4.703c0 .725-.6 1.315-1.315 1.315a1.32 1.32 0 0 1-1.316-1.315v-4.703a.75.75 0 0 0-.75-.75m8.834-4.13h-3.952V9.23A2.819 2.819 0 0 0 16 6.417a2.819 2.819 0 0 0-2.816 2.815v3.952H9.232A2.819 2.819 0 0 0 6.417 16a2.819 2.819 0 0 0 2.815 2.816h3.952v3.952A2.819 2.819 0 0 0 16 25.583a2.82 2.82 0 0 0 2.816-2.815v-3.952h3.952A2.819 2.819 0 0 0 25.583 16a2.819 2.819 0 0 0-2.815-2.816" mask="url(#B)"/></g></svg>