<svg xmlns="http://www.w3.org/2000/svg" width="32" height="32"><path fill="#f16c20" fill-rule="evenodd" d="M11.377 8.308c-2.427 0-4.403 1.86-4.403 4.144 0 3.408 6.02 8.926 8.9 11.23 2.956-2.3 9.15-7.822 9.15-11.23 0-2.285-1.974-4.144-4.402-4.144-1.646 0-3.142.856-3.905 2.234L16 11.84l-.72-1.298c-.762-1.378-2.26-2.234-3.905-2.234zm4.485 17.44l-.493-.378a53.211 53.211 0 0 1-4.942-4.4c-3.38-3.43-5.094-6.295-5.094-8.517 0-3.2 2.712-5.785 6.044-5.785 1.808 0 3.49.767 4.624 2.06 1.134-1.293 2.814-2.06 4.622-2.06 3.333 0 6.044 2.595 6.044 5.785 0 2.226-1.76 5.094-5.233 8.524a54.09 54.09 0 0 1-5.075 4.4l-.497.37z"/></svg>