<?xml version="1.0" encoding="utf-8"?>
<!-- Generator: Adobe Illustrator 14.0.0, SVG Export Plug-In . SVG Version: 6.00 Build 43363)  -->
<!DOCTYPE svg PUBLIC "-//W3C//DTD SVG 1.1//EN" "http://www.w3.org/Graphics/SVG/1.1/DTD/svg11.dtd">
<svg version="1.1" id="Layer_1" xmlns="http://www.w3.org/2000/svg" xmlns:xlink="http://www.w3.org/1999/xlink" x="0px" y="0px"
	 width="246.5px" height="40.75px" viewBox="0 0 246.5 40.75" enable-background="new 0 0 246.5 40.75" xml:space="preserve">
<g>
	<polygon fill="#FFFFFF" points="101.728,12.088 98.804,12.088 98.81,33.233 82.222,12.105 79.292,12.094 79.298,38 82.227,38.006 
		82.222,16.85 98.81,37.983 98.81,38 98.821,38 98.826,38.006 98.832,38 101.733,38.006 	"/>
	<polygon fill="#FFFFFF" points="107.521,12.088 107.526,38.006 110.466,38.006 110.456,12.094 	"/>
	<path fill="#FFFFFF" d="M44.195,19.813c0-4.266-3.459-7.719-7.712-7.719l-9.307-0.006l0,0h-0.364h-1.374v0.006h-1.191v25.917
		l2.918-0.005l0.006-10.481l6.526,0.005L41.376,38l3.625,0.011l-7.74-10.559C41.149,27.044,44.185,23.806,44.195,19.813z
		 M27.177,15.023h9.301c2.643,0.006,4.794,2.162,4.788,4.789c0,2.647-2.146,4.788-4.782,4.782l-9.313,0.011L27.177,15.023z"/>
	<path fill="#FFFFFF" d="M60.966,11.465c-7.508-0.006-13.594,6.085-13.582,13.588c-0.012,7.497,6.074,13.582,13.582,13.582
		c7.508,0.017,13.582-6.085,13.582-13.593C74.536,17.545,68.468,11.465,60.966,11.465z M60.966,35.716
		c-5.881-0.011-10.664-4.794-10.67-10.663c-0.01-5.875,4.789-10.664,10.664-10.658c5.875-0.006,10.647,4.783,10.652,10.658
		C71.612,30.934,66.841,35.711,60.966,35.716z"/>
	<path fill="#FFFFFF" d="M149.783,11.459c-5.704-0.005-10.311,4.618-10.338,10.316l0,0v0.022l0,0l0,0L139.451,38l2.929,0.006v-8.854
		h14.813V38l2.935-0.005l-0.017-16.203h0.017C160.127,16.1,155.499,11.459,149.783,11.459z M157.192,26.223H142.38v-4.425h0.006
		c-0.006-4.077,3.326-7.415,7.403-7.403c4.082,0,7.403,3.32,7.403,7.409V26.223z"/>
	<polygon fill="#FFFFFF" points="20.347,12.088 16.21,12.094 3.935,24.374 3.935,12.088 1,12.094 1,38.011 3.935,38.006 
		3.935,28.512 6.825,25.621 17.054,38.006 20.86,38.011 8.894,23.547 	"/>
	<polygon fill="#FFFFFF" points="135.645,12.088 131.501,12.083 119.222,24.363 119.216,12.094 116.286,12.094 116.298,38 
		119.222,38.006 119.222,28.506 122.118,25.615 132.346,38.011 136.157,38 124.197,23.53 	"/>
	<polygon fill="#FFFFFF" points="66.312,1 63.575,1.006 59.631,8.293 61.683,8.299 	"/>
	<path fill="#FFFFFF" d="M186.006,31.573h2.091c0.154-0.006,0.303-0.127,0.298-0.281l0.005-8.005l5.97,8.209
		c0.055,0.066,0.121,0.077,0.231,0.077l2.091-0.006c0.148,0,0.292-0.127,0.292-0.281V18.818c-0.005-0.148-0.138-0.275-0.286-0.275
		l-2.097-0.006c-0.171,0.006-0.276,0.133-0.293,0.287l0.012,7.982l-5.941-8.137c-0.056-0.055-0.166-0.127-0.281-0.121l-2.086-0.012
		c-0.143,0.006-0.275,0.139-0.281,0.299l0.006,12.45C185.741,31.446,185.856,31.567,186.006,31.573z"/>
	<path fill="#FFFFFF" d="M169.748,25.063c0.006,3.928,3.167,6.687,6.896,6.681c3.691,0.006,6.863-2.72,6.852-6.681
		c0.006-3.934-3.155-6.725-6.852-6.72C172.932,18.344,169.754,21.103,169.748,25.063z M176.639,21.053
		c2.162-0.005,3.933,1.843,3.933,4.011s-1.748,3.994-3.933,3.994c-2.207,0-3.928-1.826-3.934-3.988
		C172.711,22.901,174.448,21.053,176.639,21.053z"/>
	<path fill="#FFFFFF" d="M239.352,31.579c0.16-0.012,0.259-0.139,0.259-0.298v-1.976c-0.005-0.138-0.11-0.254-0.259-0.254h-6.891
		v-2.78l5.848-0.005c0.154,0,0.293-0.11,0.298-0.271v-1.959c0-0.159-0.138-0.298-0.298-0.298h-5.842l-0.006-2.681l6.885,0.006
		c0.166-0.006,0.271-0.11,0.265-0.271l0.006-1.976c-0.006-0.143-0.11-0.275-0.271-0.275l-9.438-0.006
		c-0.16,0-0.287,0.133-0.298,0.281v12.457c0,0.165,0.138,0.304,0.298,0.298L239.352,31.579z"/>
	<path fill="#FFFFFF" d="M207.504,31.579c0.149-0.012,0.275-0.144,0.275-0.298l-0.005-1.97c0.005-0.154-0.11-0.265-0.276-0.254
		l-4.667-0.006V18.824c-0.011-0.154-0.144-0.275-0.287-0.275l-2.283,0.006c-0.149-0.012-0.293,0.109-0.293,0.27v12.457
		c0.012,0.154,0.144,0.292,0.287,0.286L207.504,31.579z"/>
	<path fill="#FFFFFF" d="M209.805,31.567h2.283c0.166,0,0.293-0.127,0.287-0.286V18.824c0.011-0.148-0.127-0.281-0.287-0.275
		l-2.278-0.012c-0.16,0.006-0.292,0.133-0.292,0.287l0.006,12.457C209.518,31.436,209.649,31.567,209.805,31.567z"/>
	<path fill="#FFFFFF" d="M217.754,31.567c0.144,0,0.281-0.127,0.281-0.286l-0.011-7.994l5.991,8.203
		c0.049,0.083,0.115,0.083,0.231,0.077h2.079c0.16,0.006,0.293-0.127,0.287-0.286l0.006-12.463c0-0.137-0.133-0.275-0.293-0.275
		l-2.079,0.006c-0.188-0.006-0.298,0.127-0.293,0.275l-0.005,7.982l-5.937-8.143c-0.055-0.049-0.171-0.121-0.27-0.121l-2.086-0.006
		c-0.148,0-0.292,0.145-0.292,0.293v12.451c0.005,0.159,0.138,0.286,0.292,0.292L217.754,31.567z"/>
	<path fill="#FFFFFF" d="M176.633,11.449c-7.503,0.005-13.588,6.09-13.582,13.593c0.006,0.011-0.006,0.021,0.006,0.027l-0.006,13.56
		h82.286V11.454L176.633,11.449z M242.402,35.7H165.98l0.005-10.631l-0.005-0.022c0-5.881,4.782-10.658,10.658-10.658l65.764-0.006
		V35.7z"/>
</g>
</svg>
