<svg xmlns="http://www.w3.org/2000/svg" width="24" height="24"><path fill="#aeafb0" fill-rule="evenodd" d="M16.806 10.727c.407 0 .75.302.75.672v.484c0 2.332-1.766 4.288-4.15 4.842a.72.72 0 0 0-.61.484v2.1c0 .388-.338.7-.764.7s-.772-.313-.772-.7v-2.087a.727.727 0 0 0-.61-.488c-2.384-.554-4.145-2.5-4.15-4.842l.004-.484c0-.37.338-.672.744-.672s.75.302.75.672v.484c0 1 .445 1.923 1.178 2.588s1.728 1.074 2.848 1.074 2.123-.413 2.86-1.074 1.174-1.575 1.174-2.588V11.4c0-.374.342-.672.75-.672zM12.13 4c1.47 0 2.666 1.3 2.666 2.918v4.238c0 1.61-1.196 2.918-2.666 2.918s-2.667-1.3-2.667-2.918V6.918C9.463 5.3 10.66 4 12.13 4zm0 1.375c-.8 0-1.433.692-1.433 1.543v4.238c0 .85.643 1.543 1.433 1.543s1.432-.692 1.432-1.543V6.918c0-.85-.642-1.543-1.432-1.543z"/></svg>