<svg xmlns="http://www.w3.org/2000/svg" width="100" height="157" viewBox="0 0 100 157">
    <path fill="#1495BA" fill-rule="evenodd" d="M60.633 140.98c4.288 0 7.796 3.508 7.796 7.795 0 4.288-3.508 7.796-7.796 7.796H36.977c-4.288 0-7.796-3.508-7.796-7.796 0-4.287 3.508-7.795 7.796-7.795zm9.946-20.968c4.288 0 7.796 3.508 7.796 7.796 0 4.287-3.508 7.795-7.796 7.795H27.031c-4.288 0-7.796-3.508-7.796-7.795 0-4.288 3.508-7.796 7.796-7.796zM1.913 54.881c2.944-2.662 7.976-3.086 10.78-.281L29.73 72.23c2.688 2.478 12.5 12.515 13.393 27.552.03.27.05.546.05.826l.058 6.374c0 3.966-3.146 7.225-7.065 7.425-3.964-.2-7.822-3.459-7.822-7.425l-.06-6.374c0-.237.015-.47.037-.702-.406-3.474-2.105-9.575-8.424-16.431L2.166 65.127c-2.804-2.805-2.883-7.334-.253-10.246zM68.564 32.16c1.5-1.5 3.637-2.072 5.752-1.879 1.781.042 3.506.651 4.774 1.919l.067.071c.064.055.125.113.188.17.107.118.215.237.313.361l17.89 18.983c2.374 2.374 2.797 5.986 1.278 8.805a7.375 7.375 0 0 1-1.365 1.895L77.59 83.43c-6.32 6.856-8.018 12.957-8.424 16.431.022.231.036.465.036.702l-.06 6.374c0 3.966-3.857 7.225-7.821 7.425-3.92-.2-7.065-3.459-7.065-7.425l.058-6.374c0-.28.019-.555.05-.826.893-15.037 10.705-25.074 13.393-27.552l14.325-15.111-8.525-9.047-9.92 9.575c-2.895 2.895-7.632 2.895-10.527 0-2.895-2.895-2.895-7.632 0-10.527zM9.44 32.3c2.944-2.661 7.976-3.086 10.781-.28L39.596 52.07c2.895 2.896 2.895 7.633 0 10.527-2.895 2.896-7.632 2.896-10.527 0L9.694 42.546C6.889 39.741 6.81 35.212 9.44 32.3zm9.14-20.788c2.944-2.662 7.976-3.086 10.78-.282l19.376 20.053c2.895 2.895 2.895 7.632 0 10.527-2.895 2.895-7.632 2.895-10.527 0L18.833 21.758c-2.804-2.805-2.884-7.334-.253-10.246zm20.702-9.314c2.944-2.66 7.976-3.085 10.78-.28L64.979 17.37c2.895 2.894 2.895 7.632 0 10.527-2.895 2.895-7.632 2.895-10.527 0L39.535 12.445c-2.804-2.805-2.883-7.334-.253-10.247z"/>
</svg>
