<svg xmlns="http://www.w3.org/2000/svg" width="32" height="32" viewBox="0 0 32 32">
    <path fill="#1495BA" fill-rule="evenodd" d="M25.754 22.667c.501 0 .908.269.908.6 0 .332-.407.601-.908.601H6.24c-.501 0-.908-.269-.908-.6 0-.332.407-.601.908-.601h19.513zm0-6.667c.501 0 .908.269.908.6 0 .333-.407.601-.908.601H6.24c-.501 0-.908-.268-.908-.6 0-.332.407-.601.908-.601h19.513zm0-7.333c.501 0 .908.269.908.6 0 .332-.407.601-.908.601H6.24c-.501 0-.908-.269-.908-.6 0-.332.407-.601.908-.601h19.513z"/>
</svg>
