<svg xmlns="http://www.w3.org/2000/svg" width="32" height="32" viewBox="0 0 32 32">
    <path fill="#EDEDED" fill-rule="evenodd" d="M25.05 21.576c.889 0 1.617.546 1.617 1.212 0 .667-.728 1.212-1.616 1.212H6.949c-.889 0-1.616-.545-1.616-1.212 0-.666.727-1.212 1.616-1.212h18.102zm0-6.788c.889 0 1.617.546 1.617 1.212 0 .667-.728 1.212-1.616 1.212H6.949c-.889 0-1.616-.545-1.616-1.212 0-.666.727-1.212 1.616-1.212h18.102zm0-6.788c.889 0 1.617.546 1.617 1.212 0 .667-.728 1.212-1.616 1.212H6.949c-.889 0-1.616-.545-1.616-1.212C5.333 8.546 6.06 8 6.95 8h18.102z"/>
</svg>
