<svg xmlns="http://www.w3.org/2000/svg" width="27" height="30"><path fill="#ededed" fill-rule="evenodd" d="M13.767 3.34c-.424 0-.857.033-1.293.096.256-.474.76-.8 1.295-.8.568 0 1.066.317 1.3.804a8.974 8.974 0 0 0-1.312-.099zm5.146 4.065a7.227 7.227 0 0 1 2.134 5.145v4.233a.953.953 0 0 0 .122.471l3.723 6.703c.02.063.046.124.08.185a.141.141 0 0 1-.005.142c-.028.046-.072.074-.115.072H2.685a.153.153 0 0 1-.11-.043c-.04-.042-.045-.11-.01-.174a.47.47 0 0 0 .064-.16l3.738-6.726a.986.986 0 0 0 .12-.468V12.55c0-2.006.816-3.826 2.134-5.144a7.26 7.26 0 0 1 5.146-2.136 7.23 7.23 0 0 1 5.146 2.135zm-3.03 18.88c-.256.94-1.152 1.607-2.115 1.608a2.218 2.218 0 0 1-2.112-1.607h4.227zm.3-24.582a3.379 3.379 0 0 0-2.405-.999 3.38 3.38 0 0 0-2.407.997 3.38 3.38 0 0 0-.995 2.294 9.115 9.115 0 0 0-3.112 2.042 9.143 9.143 0 0 0-2.696 6.512l-.001 3.986L.86 23.2a.691.691 0 0 0-.081.214 2.056 2.056 0 0 0 .43 2.275c.387.387.924.608 1.473.608h7.014a4.105 4.105 0 0 0 4.07 3.535 4.104 4.104 0 0 0 4.074-3.535h7.003a2.06 2.06 0 0 0 1.483-.611c.6-.6.768-1.477.447-2.214a.967.967 0 0 0-.101-.273l-3.696-6.653V12.55a9.15 9.15 0 0 0-2.697-6.512A9.11 9.11 0 0 0 17.168 4a3.374 3.374 0 0 0-.995-2.294z"/></svg>