<svg xmlns="http://www.w3.org/2000/svg" width="46" height="46" viewBox="0 0 46 46">
    <path fill="#EDEDED" fill-rule="evenodd" d="M23.327 23.87V10.585c0-.383.13-.69.406-.967.277-.277.584-.406.966-.406.383 0 .69.129.967.406.276.277.405.584.405.967v13.287h2.136V13.028c0-.383.13-.69.406-.968.276-.277.584-.406.966-.406.383 0 .69.13.967.406.276.277.405.585.405.968V23.87h2.136v-5.957c0-.383.13-.69.406-.967s.584-.406.966-.406c.383 0 .69.129.967.406.276.277.405.584.405.967v9.506c0 .3-.029.637-.084.994l-1.445 7.713c-.054.26-.176.459-.382.627-.208.17-.424.248-.68.248H20.123c-.579 0-.99-.206-1.334-.668l-7.324-9.779a1.6 1.6 0 0 1-.339-1.005c0-.468.161-.856.492-1.187.33-.331.718-.492 1.185-.492.579 0 .99.205 1.333.666l4.31 5.746V13.028c0-.383.13-.69.406-.968.277-.277.584-.406.966-.406.383 0 .69.13.967.406.276.277.405.585.405.968V23.87h2.136zm13.194-8.011a2.804 2.804 0 0 0-2.048-.855c-.763 0-1.43.267-1.984.793v-2.78a2.81 2.81 0 0 0-.854-2.05 2.804 2.804 0 0 0-2.048-.855c-.763 0-1.43.267-1.984.793v-.333a2.81 2.81 0 0 0-.854-2.05 2.804 2.804 0 0 0-2.048-.855c-.793 0-1.482.287-2.048.854a2.81 2.81 0 0 0-.854 2.05v.334a2.795 2.795 0 0 0-1.985-.793c-.792 0-1.481.288-2.048.855a2.81 2.81 0 0 0-.853 2.05v12.69l-1.564-2.084a3.162 3.162 0 0 0-1.12-.957 3.184 3.184 0 0 0-1.438-.324c-.882 0-1.645.316-2.268.94a3.109 3.109 0 0 0-.94 2.27c0 .716.22 1.367.65 1.932l7.327 9.78c.313.42.69.742 1.12.958.43.215.915.324 1.44.324h13.132c.61 0 1.165-.199 1.647-.592.481-.393.79-.9.914-1.509l1.454-7.755.003-.02c.07-.444.105-.863.105-1.245v-9.516a2.81 2.81 0 0 0-.854-2.05z"/>
</svg>
