<svg xmlns="http://www.w3.org/2000/svg" width="32" height="32"><path fill="#1495ba" fill-rule="evenodd" d="M20.225 16.46a10.644 10.644 0 0 1 6.392 9.754.464.464 0 0 1-.464.464H5.797a.464.464 0 0 1-.464-.464c0-4.23 2.5-8.06 6.392-9.754a.464.464 0 0 1 .585.19 4.282 4.282 0 0 0 3.665 2.096c1.496 0 2.9-.804 3.666-2.097a.464.464 0 0 1 .584-.189zm-.015 1.014a5.214 5.214 0 0 1-4.235 2.2 5.214 5.214 0 0 1-4.235-2.2 9.717 9.717 0 0 0-5.468 8.277H25.68a9.716 9.716 0 0 0-5.469-8.277zm-4.235-12.08a5.195 5.195 0 0 1 5.19 5.19 5.195 5.195 0 0 1-5.19 5.189 5.195 5.195 0 0 1-5.189-5.19 5.195 5.195 0 0 1 5.19-5.189zm0 .928a4.267 4.267 0 0 0-4.261 4.261 4.267 4.267 0 0 0 4.261 4.262 4.267 4.267 0 0 0 4.262-4.262 4.267 4.267 0 0 0-4.262-4.261z"/></svg>