<svg xmlns="http://www.w3.org/2000/svg" xmlns:xlink="http://www.w3.org/1999/xlink" width="46" height="46"><defs><path id="A" d="M.625.7h27.622v28.515H.625z"/></defs><g fill-rule="evenodd" transform="translate(8 7)"><path fill="#ededed" d="M28.814 24.41l1.44 1.005v.1l-.14.204a20.911 20.911 0 0 1-5.024 5.133l-.424.297-.27.185-1.018-1.508.27-.185a19.091 19.091 0 0 0 4.684-4.546l.294-.414.187-.27zm-.115-5.9l1.556.36-.064.286c-1.355 5.985-6.054 10.74-11.972 12.112l-.282.065-.356-1.573.28-.066c5.325-1.235 9.554-5.513 10.773-10.9l.064-.285z"/><mask id="B" fill="#fff"><use xlink:href="#A"/></mask><path fill="#ededed" d="M23.898 22.857a12.24 12.24 0 0 1-4.69 3.648l1.083-3.598 3.607-.05zm-15.252-.072l1.25 3.82a12.203 12.203 0 0 1-4.953-3.778l3.704-.04zM14.427 4.9l-2.885-2.166c1.904-.48 3.882-.48 5.785.002l-2.9 2.164zm5.25 9.016l2.902-1.037 4.04 2.542a12.647 12.647 0 0 1-1.594 5.744l-4.954.068-1.864-2.65 1.472-4.666zm-10.52-.095l1.5 4.76-1.775 2.525-5.045.056a12.652 12.652 0 0 1-1.59-5.722l3.854-2.7 3.054 1.1zM9.654 3.4l3.963 2.976v2.938l-3.92 2.933-3.037-1.085-1.305-4.59a12.286 12.286 0 0 1 4.299-3.17zm2.514 14.553l-1.4-4.435 3.662-2.74 3.662 2.74-1.4 4.435H12.17zm10.057-6.715l-2.984 1.066-3.996-3V6.36l3.972-2.964a12.07 12.07 0 0 1 4.13 2.989l-1.122 4.845zm-10.3 8.392h4.99l1.855 2.638-1.474 4.897a11.899 11.899 0 0 1-5.496.057l-1.655-5.06 1.78-2.53zm11.86-7.942l.838-3.617a12.739 12.739 0 0 1 1.902 5.342l-2.74-1.725zm-21.46 1.667c.226-1.822.84-3.57 1.796-5.124l.914 3.22-2.7 1.905zm18.07 14.56l-.1-.072a14 14 0 0 0 4.553-3.553l.04.123.334-.498c2.647-3.954 3.055-6.248 3-10.208l-.007-.648-.094.082a14.506 14.506 0 0 0-1.955-5.679l.087-.007L25.94 7c-3.172-4.2-5.353-4.95-8.114-5.896l-.55-.188.028.1a13.48 13.48 0 0 0-5.744 0l.03-.092-.555.2C6.906 2.527 5.407 3.792 3 6.875l-.37.475.108.003a14.5 14.5 0 0 0-2.012 5.725l-.08-.065-.012.603c-.098 4.828.718 6.917 3.064 10.378l.344.507.04-.128a14.016 14.016 0 0 0 4.333 3.39l-.17.09.672.228c2.143.728 3.786 1.135 5.507 1.135 1.592 0 3.253-.35 5.436-1.117l.547-.192z" mask="url(#B)"/></g></svg>