<svg xmlns="http://www.w3.org/2000/svg" xmlns:xlink="http://www.w3.org/1999/xlink" viewBox="0 0 32 32"><defs><path id="A" d="M16 7.4c-4.7 0-8.6 3.8-8.6 8.6s3.8 8.6 8.6 8.6 8.6-3.8 8.6-8.6-3.9-8.6-8.6-8.6zM16 27c-.7 0-1.2.5-1.2 1.2v2.4c0 .7.5 1.2 1.2 1.2s1.2-.5 1.2-1.2v-2.4c0-.7-.6-1.2-1.2-1.2zm9.5-3.3c-.5-.5-1.3-.5-1.7 0-.5.5-.5 1.3 0 1.7l1.7 1.7c.2.2.6.4.9.4s.6-.1.9-.4c.5-.5.5-1.3 0-1.7l-1.8-1.7zm5.1-9h-2.4c-.7 0-1.2.5-1.2 1.2s.5 1.2 1.2 1.2h2.4c.7 0 1.2-.5 1.2-1.2.1-.6-.5-1.2-1.2-1.2zM16 4.9c.7 0 1.2-.5 1.2-1.2V1.3c0-.7-.5-1.2-1.2-1.2s-1.2.5-1.2 1.2v2.4c-.1.7.5 1.2 1.2 1.2zM6.5 8.2c.2.2.5.3.8.3s.6-.1.9-.4c.5-.5.5-1.3 0-1.7L6.5 4.7c-.5-.5-1.3-.5-1.8 0-.4.5-.4 1.3 0 1.7l1.8 1.8zm0 15.5l-1.7 1.7c-.5.5-.5 1.3 0 1.7.2.2.6.4.9.4s.6-.1.9-.4l1.7-1.7c.5-.5.5-1.3 0-1.7-.6-.4-1.4-.4-1.8 0zM5 16c0-.7-.5-1.2-1.2-1.2H1.3c-.7 0-1.2.5-1.2 1.2s.5 1.2 1.2 1.2h2.4c.7 0 1.3-.6 1.3-1.2zm19.6-7.5c.3 0 .6-.1.9-.4l1.7-1.7c.5-.5.5-1.3 0-1.7-.5-.5-1.3-.5-1.7 0l-1.7 1.7c-.5.5-.5 1.3 0 1.7.2.3.5.4.8.4z"/></defs><use xlink:href="#A" fill="#fff"/><clipPath ><use xlink:href="#A"/></clipPath></svg>