<svg xmlns="http://www.w3.org/2000/svg" width="48" height="48"><path fill="#ededed" d="M24 35.077a1.23 1.23 0 0 1 1.23 1.23v2.462a1.231 1.231 0 0 1-2.46 0v-2.46A1.23 1.23 0 0 1 24 35.077zm-9.573-3.244a1.23 1.23 0 1 1 1.74 1.74l-1.74 1.74c-.24.24-.556.36-.87.36a1.23 1.23 0 0 1-.87-2.1zm17.406 0a1.23 1.23 0 0 1 1.74 0l1.74 1.74a1.23 1.23 0 1 1-1.74 1.74l-1.74-1.74a1.23 1.23 0 0 1 0-1.74zM24 15.385c4.75 0 8.615 3.864 8.615 8.615S28.75 32.615 24 32.615 15.385 28.75 15.385 24 19.25 15.385 24 15.385zM11.692 22.77a1.231 1.231 0 0 1 0 2.462H9.23a1.231 1.231 0 0 1 0-2.462zm27.077 0a1.231 1.231 0 0 1 0 2.462h-2.46a1.231 1.231 0 0 1 0-2.462zm-5.195-10.083a1.23 1.23 0 1 1 1.74 1.74l-1.74 1.74c-.24.24-.555.36-.87.36a1.23 1.23 0 0 1-.87-2.1zm-20.888 0a1.23 1.23 0 0 1 1.74 0l1.74 1.74a1.23 1.23 0 1 1-1.74 1.74l-1.74-1.74a1.23 1.23 0 0 1 0-1.74zM24 8a1.23 1.23 0 0 1 1.23 1.23v2.462a1.231 1.231 0 0 1-2.46 0V9.23A1.23 1.23 0 0 1 24 8z" fill-rule="evenodd"/></svg>