<svg xmlns="http://www.w3.org/2000/svg" width="46" height="46"><path fill="#ededed" fill-rule="evenodd" d="M18.272 8.625v4.602h3.93V8.625H23.8v4.602h3.93V8.625h1.598v4.602h3.47v3.446h4.578v1.598h-4.578v3.93h4.578v1.6h-4.578v3.93h4.578v1.598h-4.578v3.446h-3.47v4.602H27.73v-4.602H23.8v4.602h-1.6v-4.602h-3.93v4.602h-1.598v-4.602h-3.468v-3.446h-4.58V27.73h4.58V23.8h-4.58v-1.6h4.58v-3.93h-4.58v-1.598h4.58v-3.446h3.468v-4.6h1.6zm12.927 6.2H14.802v16.35H31.2v-16.35zm-3.372 11.82v1.596H26.46v-1.597h1.368zm-8.286 0v1.596h-1.368v-1.597h1.368zm4.143 0v1.596h-1.368v-1.597h1.368zm0-4.443v1.6h-1.368v-1.6h1.368zm4.143 0v1.6H26.46v-1.6h1.368zm-8.286 0v1.6h-1.368v-1.6h1.368zm4.143-4.44v1.597h-1.368V17.76h1.368zm4.143 0v1.597H26.46V17.76h1.368zm-8.286 0v1.597h-1.368V17.76h1.368z"/></svg>