<svg xmlns="http://www.w3.org/2000/svg" width="24" height="24" viewBox="0 0 24 24">
    <path fill="#1495BA" fill-rule="evenodd" d="M9.755 12.5c.96 0 1.745.793 1.745 1.762v3.476c0 .97-.785 1.762-1.745 1.762h-4.01C4.785 19.5 4 18.707 4 17.738v-3.476c0-.97.785-1.762 1.745-1.762h4.01zm8.5 0c.96 0 1.745.793 1.745 1.762v3.476c0 .97-.785 1.762-1.745 1.762h-4.01c-.96 0-1.745-.793-1.745-1.762v-3.476c0-.97.785-1.762 1.745-1.762h4.01zm-8.5-8c.96 0 1.745.793 1.745 1.762v3.476c0 .97-.785 1.762-1.745 1.762h-4.01C4.785 11.5 4 10.707 4 9.738V6.262c0-.97.785-1.762 1.745-1.762h4.01zm8.5 0c.96 0 1.745.793 1.745 1.762v3.476c0 .97-.785 1.762-1.745 1.762h-4.01c-.96 0-1.745-.793-1.745-1.762V6.262c0-.97.785-1.762 1.745-1.762h4.01z"/>
</svg>
