<svg xmlns="http://www.w3.org/2000/svg" width="32" height="32" viewBox="0 0 32 32">
    <path fill="#EDEDED" fill-rule="evenodd" d="M21.732 18.37H10.268a.533.533 0 110-1.066h11.464a.533.533 0 110 1.067m0 3.82H10.268a.533.533 0 110-1.066h11.464a.533.533 0 110 1.067m-11.464-8.71h6.21a.533.533 0 110 1.067h-6.21a.533.533 0 110-1.066M24 7.16h-1.44V5.867a.533.533 0 10-1.067 0V7.16H10.506V5.867a.533.533 0 10-1.066 0V7.16H8c-1.47 0-2.667 1.213-2.667 2.683v13.864a2.658 2.658 0 002.663 2.653H24a2.658 2.658 0 002.666-2.65V9.843c0-1.47-1.196-2.683-2.666-2.683"/>
</svg>
