<svg xmlns="http://www.w3.org/2000/svg" width="32" height="32"><path fill="#ededed" fill-rule="evenodd" d="M18.024 7.626c.505 0 .988.17 1.386.485h.025l.217.214 1.733 1.773h2.943c1.268 0 2.3 1.036 2.3 2.31v9.796c0 1.287-1.032 2.334-2.3 2.334H7.633c-1.268 0-2.3-1.047-2.3-2.334v-9.797a2.307 2.307 0 012.3-2.31h3.013l1.669-1.714a2.276 2.276 0 011.689-.757h4.02zm0 1.4h-4.02a.88.88 0 00-.585.219l-.1.106-2.095 2.147H7.633c-.514 0-.917.4-.917.91v9.796c0 .515.411.933.917.933h16.695a.926.926 0 00.917-.933v-9.797a.903.903 0 00-.917-.909h-3.52L18.66 9.306a.881.881 0 00-.636-.28zM16 12.839a3.79 3.79 0 013.785 3.784A3.79 3.79 0 0116 20.41a3.79 3.79 0 01-3.785-3.786A3.79 3.79 0 0116 12.84zm0 1.295a2.491 2.491 0 00-2.487 2.49A2.491 2.491 0 0016 19.113a2.491 2.491 0 002.487-2.49A2.491 2.491 0 0016 14.133zm7.57-1.983a1.033 1.033 0 010 2.064 1.034 1.034 0 01-1.032-1.032c0-.57.463-1.032 1.032-1.032zm0 .762a.269.269 0 00-.267.27c0 .149.12.27.267.27a.269.269 0 00.266-.27c0-.149-.12-.27-.266-.27z"/></svg>