<svg xmlns="http://www.w3.org/2000/svg" width="260" height="61" fill="#818181" fill-rule="evenodd"><path d="M1 31.757a1 1 0 0 1-1-1v-1.332a1 1 0 0 1 1-1 1 1 0 0 1 1 1v1.332a1 1 0 0 1-1 1m6.132 8.256a1 1 0 0 1-1-1V21.17a1 1 0 1 1 2 0v17.844a1 1 0 0 1-1 1m6.132-5.086a1 1 0 0 1-1-1v-7.672a1 1 0 1 1 2 0v7.672a1 1 0 0 1-1 1m6.132.586a1 1 0 0 1-1-1V25.67a1 1 0 1 1 2 0v8.844a1 1 0 0 1-1 1m6.132 7.266a1 1 0 0 1-1-1V18.402a1 1 0 1 1 2 0V41.78a1 1 0 0 1-1 1m6.132-5.766a1 1 0 0 1-1-1V24.17a1 1 0 0 1 2 0v11.844a1 1 0 0 1-1 1m6.13-3a1 1 0 0 1-1-1V27.17a1 1 0 1 1 2 0v5.844a1 1 0 0 1-1 1m6.132 5.873a1 1 0 0 1-1-1v-17.6a1 1 0 1 1 2 0v17.6a1 1 0 0 1-1 1m6.132-4.96a1 1 0 0 1-1-1v-7.672a1 1 0 1 1 2 0v7.672a1 1 0 0 1-1 1m6.132-.914a1 1 0 0 1-1-1V27.17a1 1 0 1 1 2 0v5.844a1 1 0 0 1-1 1m6.132 5.873a1 1 0 0 1-1-1v-17.6a1 1 0 1 1 2 0v17.6a1 1 0 0 1-1 1m6.132 7.325a1 1 0 0 1-1-1V13.97a1 1 0 1 1 2 0v32.24a1 1 0 0 1-1 1m6.13-7.198a1 1 0 0 1-1-1V21.17a1 1 0 1 1 2 0v17.844a1 1 0 0 1-1 1m6.132-3.08a1 1 0 0 1-1-1V24.247a1 1 0 1 1 2 0v11.687a1 1 0 0 1-1 1m6.132-3.882a1 1 0 0 1-1-1V28.13a1 1 0 1 1 2 0v3.922a1 1 0 0 1-1 1m6.132-.543a1 1 0 0 1-1-1v-2.836a1 1 0 1 1 2 0v2.836a1 1 0 0 1-1 1m6.132.504a1 1 0 0 1-1-1V28.17a1 1 0 1 1 2 0v3.844a1 1 0 0 1-1 1m6.132 5.79a1 1 0 0 1-1-1V22.38a1 1 0 1 1 2 0v15.422a1 1 0 0 1-1 1m6.13-3.79a1 1 0 0 1-1-1V26.17a1 1 0 1 1 2 0v7.844a1 1 0 0 1-1 1m6.132 7.766a1 1 0 0 1-1-1V18.402a1 1 0 1 1 2 0V41.78a1 1 0 0 1-1 1m6.132 7.69a1 1 0 0 1-1-1V10.714a1 1 0 1 1 2 0v38.754a1 1 0 0 1-1 1m6.132 9.714a1 1 0 0 1-1-1V1a1 1 0 1 1 2 0v58.182a1 1 0 0 1-1 1m128.77-28.425a1 1 0 0 1-1-1v-1.332a1 1 0 1 1 2 0v1.332a1 1 0 0 1-1 1m-6.132 8.256a1 1 0 0 1-1-1V21.17a1 1 0 1 1 2 0v17.844a1 1 0 0 1-1 1m-6.132-5.086a1 1 0 0 1-1-1v-7.672a1 1 0 1 1 2 0v7.672a1 1 0 0 1-1 1m-6.132.586a1 1 0 0 1-1-1V25.67a1 1 0 1 1 2 0v8.844a1 1 0 0 1-1 1M234 42.78a1 1 0 0 1-1-1V18.402a1 1 0 1 1 2 0V41.78a1 1 0 0 1-1 1m-6.132-5.766a1 1 0 0 1-1-1V24.17a1 1 0 1 1 2 0v11.844a1 1 0 0 1-1 1m-6.13-3a1 1 0 0 1-1-1V27.17a1 1 0 1 1 2 0v5.844a1 1 0 0 1-1 1m-6.132 5.873a1 1 0 0 1-1-1v-17.6a1 1 0 1 1 2 0v17.6a1 1 0 0 1-1 1m-6.132-4.96a1 1 0 0 1-1-1v-7.672a1 1 0 1 1 2 0v7.672a1 1 0 0 1-1 1m-6.132-.914a1 1 0 0 1-1-1V27.17a1 1 0 1 1 2 0v5.844a1 1 0 0 1-1 1m-6.132 5.873a1 1 0 0 1-1-1v-17.6a1 1 0 1 1 2 0v17.6a1 1 0 0 1-1 1m-6.132 7.325a1 1 0 0 1-1-1V13.97a1 1 0 1 1 2 0v32.24a1 1 0 0 1-1 1m-6.13-7.198a1 1 0 0 1-1-1V21.17a1 1 0 1 1 2 0v17.844a1 1 0 0 1-1 1m-6.132-3.08a1 1 0 0 1-1-1V24.247a1 1 0 1 1 2 0v11.687a1 1 0 0 1-1 1m-6.132-3.882a1 1 0 0 1-1-1V28.13a1 1 0 1 1 2 0v3.922a1 1 0 0 1-1 1m-6.132-.543a1 1 0 0 1-1-1v-2.836a1 1 0 1 1 2 0v2.836a1 1 0 0 1-1 1m-6.132.504a1 1 0 0 1-1-1V28.17a1 1 0 1 1 2 0v3.844a1 1 0 0 1-1 1m-6.132 5.79a1 1 0 0 1-1-1V22.38a1 1 0 1 1 2 0v15.422a1 1 0 0 1-1 1m-6.13-3.79a1 1 0 0 1-1-1V26.17a1 1 0 1 1 2 0v7.844a1 1 0 0 1-1 1m-6.132 7.766a1 1 0 0 1-1-1V18.402a1 1 0 1 1 2 0V41.78a1 1 0 0 1-1 1m-6.132 7.69a1 1 0 0 1-1-1V10.714a1 1 0 1 1 2 0v38.754a1 1 0 0 1-1 1"/><path d="M129.77 60.182a1 1 0 0 1-1-1V1a1 1 0 1 1 2 0v58.182a1 1 0 0 1-1 1"/></svg>