<svg xmlns="http://www.w3.org/2000/svg" width="48" height="48"><path fill="#ededed" fill-rule="evenodd" d="M23.568 11.087v5.773a20.877 20.877 0 0 1-3.637-.483c.913-2.7 2.265-4.67 3.637-5.3zm-8.463 3.548a13.531 13.531 0 0 1 5.159-3.09c-.85 1.13-1.578 2.605-2.14 4.333a20.372 20.372 0 0 1-3.018-1.243zm8.463 4.09v4.844h-4.84c.058-1.9.288-3.72.688-5.395 1.37.31 2.765.494 4.152.55zm0 13.417v5.777c-1.375-.627-2.727-2.585-3.638-5.3a20.296 20.296 0 0 1 3.638-.487zm-5.452.974c.567 1.73 1.3 3.205 2.15 4.34a13.556 13.556 0 0 1-5.17-3.099 20.65 20.65 0 0 1 3.02-1.242zm.613-7.683h4.84v4.836a22.735 22.735 0 0 0-4.153.558c-.4-1.674-.63-3.485-.686-5.394zm-7.824-1.864a13.452 13.452 0 0 1 2.896-7.5 22.49 22.49 0 0 0 3.815 1.613c-.442 1.823-.7 3.8-.765 5.887h-5.946zm6.704 7.752a23.11 23.11 0 0 0-3.814 1.612 13.502 13.502 0 0 1-2.897-7.5h5.952c.06 2.08.314 4.06.76 5.888zm20.487-7.745h-6c-.06-2.067-.31-4.045-.752-5.886a23.084 23.084 0 0 0 3.845-1.621 13.476 13.476 0 0 1 2.897 7.507zM29.04 32.6c-.9 2.68-2.24 4.634-3.607 5.28v-5.756a21.05 21.05 0 0 1 3.607.476zm-3.607-2.342v-4.836h4.802c-.057 1.906-.287 3.715-.686 5.388a22.903 22.903 0 0 0-4.116-.552zm8.476 4.1a13.689 13.689 0 0 1-5.216 3.114c.853-1.136 1.6-2.62 2.162-4.365a20.8 20.8 0 0 1 3.054 1.251zm-8.476-17.506V11.1c1.367.648 2.705 2.6 3.6 5.275a21.11 21.11 0 0 1-3.6.468zm4.116 1.328c.4 1.673.63 3.485.686 5.395h-4.802v-4.85a22.97 22.97 0 0 0 4.116-.544zm-.86-6.653a13.706 13.706 0 0 1 5.21 3.108c-1 .503-2.022.923-3.05 1.25-.567-1.734-1.302-3.217-2.16-4.36zm9.407 13.905a13.498 13.498 0 0 1-2.897 7.5 22.829 22.829 0 0 0-3.852-1.627c.445-1.83.7-3.803.76-5.873h6zM24.5 9h-.037C15.937 9.023 9 15.976 9 24.5S15.937 39.977 24.5 40C33.047 40 40 33.047 40 24.5S33.047 9 24.5 9z"/></svg>